<svg width="667" height="459" viewBox="0 0 667 459" fill="none" xmlns="http://www.w3.org/2000/svg">
<g clip-path="url(#clip0)">
<path d="M582.287 157.906C558.147 140.655 520.338 124.34 478.554 113.146C440.51 102.953 403.403 98.0313 374.061 99.288L373.908 96.0262C403.6 94.7551 441.092 99.7176 479.476 110.002C521.649 121.301 559.868 137.808 584.332 155.291L582.287 157.906Z" fill="#CCCCCC"/>
<path d="M579.781 171.193C579.802 186.477 576.45 201.594 569.944 215.555C569.401 216.724 568.835 217.882 568.246 219.029C556.929 241.186 538.093 259.023 514.808 269.632C491.524 280.241 465.166 282.995 440.034 277.446C414.902 271.896 392.478 258.37 376.421 239.074C360.364 219.778 351.62 195.85 351.616 171.193C351.616 168.669 351.706 166.165 351.886 163.68C351.972 162.417 352.082 161.161 352.218 159.913C355.243 132.118 369.315 106.494 391.53 88.328C413.744 70.1623 442.406 60.8413 471.601 62.2886C500.796 63.7358 528.296 75.8408 548.426 96.1055C568.556 116.37 579.779 143.248 579.781 171.193V171.193Z" fill="#00509D"/>
<path opacity="0.1" d="M569.944 215.555C569.401 216.724 568.835 217.882 568.246 219.029C564.912 219.375 561.403 219.626 557.719 219.783C554.669 219.914 551.53 219.979 548.323 219.979C520.308 219.979 486.592 215.036 452.149 205.809C413.764 195.524 379.037 181.138 354.363 165.3C353.522 164.761 352.697 164.221 351.886 163.68C351.972 162.417 352.082 161.161 352.218 159.913C353.526 160.804 354.875 161.696 356.265 162.59C380.649 178.239 415.028 192.471 453.071 202.665C487.214 211.813 520.612 216.714 548.306 216.714C551.472 216.714 554.559 216.65 557.565 216.521C561.944 216.332 566.07 216.01 569.944 215.555Z" fill="black"/>
<path d="M548.323 217.367C520.309 217.368 486.591 212.424 452.15 203.197C413.765 192.912 379.037 178.526 354.362 162.688C329.172 146.52 317.36 130.588 321.102 117.827C324.843 105.067 343.597 97.3246 373.908 96.0261L374.061 99.2879C359.906 99.8942 348.37 101.905 339.775 105.265C331.199 108.617 326.024 113.14 324.391 118.709C322.758 124.277 324.721 130.713 330.224 137.837C335.741 144.978 344.503 152.427 356.266 159.978C380.648 175.627 415.027 189.86 453.072 200.053C487.215 209.201 520.61 214.103 548.307 214.103C551.471 214.103 554.557 214.039 557.565 213.91C571.72 213.304 583.255 211.293 591.852 207.933C600.427 204.581 605.603 200.058 607.235 194.49C610.167 184.49 601.307 171.498 582.287 157.906L584.332 155.291C594.12 162.285 601.365 169.18 605.867 175.783C610.693 182.861 612.26 189.452 610.524 195.371C606.783 208.131 588.029 215.873 557.718 217.172C554.668 217.303 551.53 217.367 548.323 217.367Z" fill="#CCCCCC"/>
<path d="M468.716 42.4747C469.438 42.4747 470.024 41.9152 470.024 41.2251C470.024 40.5349 469.438 39.9755 468.716 39.9755C467.994 39.9755 467.409 40.5349 467.409 41.2251C467.409 41.9152 467.994 42.4747 468.716 42.4747Z" fill="#F2F2F2"/>
<path d="M295.286 96.6998C296.528 96.6998 297.535 95.7373 297.535 94.55C297.535 93.3628 296.528 92.4003 295.286 92.4003C294.044 92.4003 293.037 93.3628 293.037 94.55C293.037 95.7373 294.044 96.6998 295.286 96.6998Z" fill="#CCCCCC"/>
<path d="M290.492 182.938C292.946 182.938 294.935 181.036 294.935 178.691C294.935 176.345 292.946 174.444 290.492 174.444C288.038 174.444 286.049 176.345 286.049 178.691C286.049 181.036 288.038 182.938 290.492 182.938Z" fill="#CCCCCC"/>
<path d="M557.175 51.5533C558.81 51.5533 560.136 50.2861 560.136 48.7229C560.136 47.1597 558.81 45.8925 557.175 45.8925C555.54 45.8925 554.214 47.1597 554.214 48.7229C554.214 50.2861 555.54 51.5533 557.175 51.5533Z" fill="#CCCCCC"/>
<path d="M662.193 170.79C664.848 170.79 667 168.733 667 166.195C667 163.657 664.848 161.599 662.193 161.599C659.537 161.599 657.385 163.657 657.385 166.195C657.385 168.733 659.537 170.79 662.193 170.79Z" fill="#CCCCCC"/>
<path d="M624.6 94.769C625.739 94.769 626.663 93.8863 626.663 92.7974C626.663 91.7084 625.739 90.8257 624.6 90.8257C623.461 90.8257 622.538 91.7084 622.538 92.7974C622.538 93.8863 623.461 94.769 624.6 94.769Z" fill="#CCCCCC"/>
<path d="M374.157 70.543C375.934 70.543 377.375 69.1659 377.375 67.4671C377.375 65.7684 375.934 64.3912 374.157 64.3912C372.38 64.3912 370.939 65.7684 370.939 67.4671C370.939 69.1659 372.38 70.543 374.157 70.543Z" fill="#CCCCCC"/>
<path d="M617.381 158.848C618.52 158.848 619.444 157.966 619.444 156.877C619.444 155.788 618.52 154.905 617.381 154.905C616.242 154.905 615.318 155.788 615.318 156.877C615.318 157.966 616.242 158.848 617.381 158.848Z" fill="#CCCCCC"/>
<path d="M300.95 241.127C302.368 241.127 303.518 240.028 303.518 238.673C303.518 237.317 302.368 236.219 300.95 236.219C299.532 236.219 298.383 237.317 298.383 238.673C298.383 240.028 299.532 241.127 300.95 241.127Z" fill="#CCCCCC"/>
<path d="M352.805 275.486C354.341 275.486 355.585 274.297 355.585 272.829C355.585 271.361 354.341 270.171 352.805 270.171C351.27 270.171 350.025 271.361 350.025 272.829C350.025 274.297 351.27 275.486 352.805 275.486Z" fill="#CCCCCC"/>
<path d="M433.625 5.24441H428.139V0H425.195V5.24441H419.707V8.06038H425.195V13.3048H428.139V8.06038H433.625V5.24441Z" fill="#CCCCCC"/>
<path d="M560.891 289.016H557.445V285.723H555.597V289.016H552.152V290.783H555.597V294.076H557.445V290.783H560.891V289.016Z" fill="#CCCCCC"/>
<path d="M640.403 272.16H637.828V269.699H636.445V272.16H633.87V273.482H636.445V275.944H637.828V273.482H640.403V272.16Z" fill="#CCCCCC"/>
<path opacity="0.1" d="M467.409 94.9665C472.704 94.9665 476.996 90.8637 476.996 85.8027C476.996 80.7416 472.704 76.6388 467.409 76.6388C462.115 76.6388 457.823 80.7416 457.823 85.8027C457.823 90.8637 462.115 94.9665 467.409 94.9665Z" fill="black"/>
<path opacity="0.1" d="M393.766 162.029C399.061 162.029 403.353 157.927 403.353 152.866C403.353 147.804 399.061 143.702 393.766 143.702C388.472 143.702 384.18 147.804 384.18 152.866C384.18 157.927 388.472 162.029 393.766 162.029Z" fill="black"/>
<path opacity="0.1" d="M499.655 254.085C504.95 254.085 509.242 249.982 509.242 244.921C509.242 239.86 504.95 235.757 499.655 235.757C494.361 235.757 490.069 239.86 490.069 244.921C490.069 249.982 494.361 254.085 499.655 254.085Z" fill="black"/>
<path opacity="0.1" d="M467.409 176.192C472.704 176.192 476.996 172.089 476.996 167.028C476.996 161.967 472.704 157.864 467.409 157.864C462.115 157.864 457.823 161.967 457.823 167.028C457.823 172.089 462.115 176.192 467.409 176.192Z" fill="black"/>
<path opacity="0.1" d="M398.56 226.593C403.854 226.593 408.146 222.49 408.146 217.429C408.146 212.368 403.854 208.265 398.56 208.265C393.265 208.265 388.973 212.368 388.973 217.429C388.973 222.49 393.265 226.593 398.56 226.593Z" fill="black"/>
<path opacity="0.1" d="M518.829 127.04C524.123 127.04 528.415 122.937 528.415 117.876C528.415 112.815 524.123 108.712 518.829 108.712C513.534 108.712 509.242 112.815 509.242 117.876C509.242 122.937 513.534 127.04 518.829 127.04Z" fill="black"/>
<path opacity="0.1" d="M550.639 189.104C555.933 189.104 560.226 185.002 560.226 179.941C560.226 174.88 555.933 170.777 550.639 170.777C545.344 170.777 541.052 174.88 541.052 179.941C541.052 185.002 545.344 189.104 550.639 189.104Z" fill="black"/>
<path d="M467.409 139.12C474.389 139.12 480.046 133.712 480.046 127.04C480.046 120.369 474.389 114.96 467.409 114.96C460.43 114.96 454.772 120.369 454.772 127.04C454.772 133.712 460.43 139.12 467.409 139.12Z" fill="white"/>
<path d="M467.409 109.545C462.671 109.545 458.127 111.345 454.776 114.547C451.426 117.75 449.543 122.094 449.543 126.623C449.543 136.055 467.409 167.028 467.409 167.028C467.409 167.028 485.275 136.055 485.275 126.623C485.275 122.094 483.393 117.75 480.043 114.547C476.692 111.345 472.148 109.545 467.409 109.545ZM467.409 134.954C465.772 134.954 464.171 134.49 462.81 133.62C461.448 132.751 460.387 131.515 459.76 130.069C459.134 128.623 458.97 127.031 459.289 125.496C459.609 123.961 460.397 122.551 461.555 121.444C462.713 120.337 464.188 119.583 465.794 119.278C467.4 118.972 469.065 119.129 470.578 119.728C472.091 120.327 473.384 121.342 474.294 122.643C475.203 123.945 475.689 125.475 475.689 127.04C475.689 128.079 475.475 129.109 475.059 130.069C474.643 131.029 474.033 131.901 473.264 132.636C472.495 133.371 471.582 133.954 470.578 134.352C469.573 134.75 468.497 134.954 467.409 134.954Z" fill="#CCCCCC"/>
<path d="M398.56 190.771C405.539 190.771 411.197 185.362 411.197 178.691C411.197 172.02 405.539 166.611 398.56 166.611C391.581 166.611 385.923 172.02 385.923 178.691C385.923 185.362 391.581 190.771 398.56 190.771Z" fill="white"/>
<path d="M398.56 161.196C393.822 161.196 389.277 162.996 385.927 166.198C382.576 169.401 380.694 173.745 380.694 178.274C380.694 187.706 398.56 218.679 398.56 218.679C398.56 218.679 416.426 187.706 416.426 178.274C416.426 176.032 415.964 173.811 415.066 171.739C414.168 169.667 412.852 167.784 411.193 166.198C409.534 164.613 407.564 163.355 405.397 162.496C403.229 161.638 400.906 161.196 398.56 161.196ZM398.56 186.605C396.922 186.605 395.322 186.141 393.96 185.271C392.599 184.402 391.537 183.166 390.911 181.72C390.284 180.273 390.12 178.682 390.44 177.147C390.759 175.612 391.548 174.201 392.705 173.095C393.863 171.988 395.339 171.234 396.945 170.929C398.551 170.623 400.215 170.78 401.728 171.379C403.241 171.978 404.534 172.993 405.444 174.294C406.354 175.595 406.839 177.126 406.839 178.691C406.839 179.73 406.625 180.759 406.209 181.72C405.793 182.68 405.183 183.552 404.414 184.287C403.645 185.022 402.733 185.605 401.728 186.003C400.724 186.4 399.647 186.605 398.56 186.605Z" fill="#CCCCCC"/>
<path d="M550.639 153.282C557.618 153.282 563.276 147.874 563.276 141.202C563.276 134.531 557.618 129.123 550.639 129.123C543.66 129.123 538.002 134.531 538.002 141.202C538.002 147.874 543.66 153.282 550.639 153.282Z" fill="white"/>
<path d="M550.639 123.708C548.293 123.708 545.97 124.15 543.802 125.008C541.634 125.866 539.665 127.124 538.006 128.71C536.347 130.296 535.031 132.178 534.133 134.25C533.235 136.322 532.773 138.543 532.773 140.786C532.773 150.218 550.639 181.19 550.639 181.19C550.639 181.19 568.505 150.218 568.505 140.786C568.505 138.543 568.043 136.322 567.145 134.25C566.247 132.178 564.931 130.296 563.272 128.71C561.613 127.124 559.644 125.866 557.476 125.008C555.308 124.15 552.985 123.708 550.639 123.708ZM550.639 149.117C549.001 149.117 547.401 148.653 546.039 147.783C544.678 146.913 543.616 145.677 542.99 144.231C542.363 142.785 542.199 141.194 542.519 139.658C542.838 138.123 543.627 136.713 544.785 135.606C545.942 134.499 547.418 133.746 549.024 133.44C550.63 133.135 552.295 133.292 553.807 133.891C555.32 134.49 556.613 135.504 557.523 136.805C558.433 138.107 558.918 139.637 558.918 141.202C558.918 142.242 558.704 143.271 558.288 144.231C557.872 145.191 557.262 146.064 556.493 146.799C555.725 147.534 554.812 148.117 553.807 148.514C552.803 148.912 551.726 149.117 550.639 149.117Z" fill="#CCCCCC"/>
<path d="M467.409 57.8945C474.389 57.8945 480.046 52.4863 480.046 45.8149C480.046 39.1435 474.389 33.7352 467.409 33.7352C460.43 33.7352 454.772 39.1435 454.772 45.8149C454.772 52.4863 460.43 57.8945 467.409 57.8945Z" fill="white"/>
<path d="M467.409 28.3203C462.671 28.3203 458.127 30.1196 454.776 33.3224C451.426 36.5251 449.543 40.869 449.543 45.3984C449.543 54.8304 467.409 85.8027 467.409 85.8027C467.409 85.8027 485.275 54.8304 485.275 45.3984C485.275 40.869 483.393 36.5251 480.043 33.3224C476.692 30.1196 472.148 28.3203 467.409 28.3203ZM467.409 53.7292C465.772 53.7292 464.171 53.265 462.81 52.3954C461.448 51.5258 460.387 50.2897 459.76 48.8436C459.134 47.3974 458.97 45.8062 459.289 44.2709C459.609 42.7357 460.397 41.3255 461.555 40.2187C462.713 39.1119 464.188 38.3581 465.794 38.0527C467.4 37.7474 469.065 37.9041 470.578 38.5031C472.091 39.1021 473.384 40.1165 474.294 41.418C475.203 42.7195 475.689 44.2497 475.689 45.8149C475.689 46.8543 475.475 47.8834 475.059 48.8436C474.643 49.8038 474.033 50.6763 473.264 51.4112C472.495 52.1461 471.582 52.7291 470.578 53.1268C469.573 53.5245 468.497 53.7292 467.409 53.7292Z" fill="#CCCCCC"/>
<path d="M499.655 218.262C506.634 218.262 512.292 212.854 512.292 206.183C512.292 199.511 506.634 194.103 499.655 194.103C492.676 194.103 487.018 199.511 487.018 206.183C487.018 212.854 492.676 218.262 499.655 218.262Z" fill="white"/>
<path d="M499.655 188.688C494.917 188.688 490.373 190.487 487.022 193.69C483.672 196.893 481.789 201.237 481.789 205.766C481.789 215.198 499.655 246.17 499.655 246.17C499.655 246.17 517.521 215.198 517.521 205.766C517.521 203.523 517.059 201.302 516.161 199.23C515.263 197.158 513.947 195.276 512.288 193.69C510.629 192.104 508.66 190.846 506.492 189.988C504.325 189.13 502.001 188.688 499.655 188.688ZM499.655 214.097C498.018 214.097 496.417 213.633 495.055 212.763C493.694 211.893 492.633 210.657 492.006 209.211C491.379 207.765 491.216 206.174 491.535 204.638C491.854 203.103 492.643 201.693 493.801 200.586C494.959 199.479 496.434 198.726 498.04 198.42C499.646 198.115 501.311 198.272 502.824 198.871C504.337 199.47 505.63 200.484 506.539 201.786C507.449 203.087 507.935 204.617 507.935 206.182C507.935 207.222 507.721 208.251 507.304 209.211C506.888 210.171 506.279 211.044 505.51 211.779C504.741 212.514 503.828 213.097 502.824 213.494C501.819 213.892 500.743 214.097 499.655 214.097Z" fill="#3F3D56"/>
<path d="M393.766 125.374C400.746 125.374 406.403 119.966 406.403 113.294C406.403 106.623 400.746 101.215 393.766 101.215C386.787 101.215 381.129 106.623 381.129 113.294C381.129 119.966 386.787 125.374 393.766 125.374Z" fill="white"/>
<path d="M393.766 95.7997C389.028 95.7997 384.484 97.599 381.133 100.802C377.783 104.005 375.9 108.348 375.9 112.878C375.9 122.31 393.766 153.282 393.766 153.282C393.766 153.282 411.632 122.31 411.632 112.878C411.632 108.348 409.75 104.005 406.4 100.802C403.049 97.599 398.505 95.7997 393.766 95.7997ZM393.766 121.209C392.129 121.209 390.528 120.744 389.167 119.875C387.805 119.005 386.744 117.769 386.117 116.323C385.491 114.877 385.327 113.286 385.646 111.75C385.966 110.215 386.754 108.805 387.912 107.698C389.07 106.591 390.545 105.837 392.151 105.532C393.757 105.227 395.422 105.383 396.935 105.982C398.448 106.582 399.741 107.596 400.65 108.897C401.56 110.199 402.046 111.729 402.046 113.294C402.046 114.334 401.832 115.363 401.416 116.323C400.999 117.283 400.39 118.156 399.621 118.891C398.852 119.625 397.939 120.208 396.935 120.606C395.93 121.004 394.854 121.209 393.766 121.209Z" fill="#3F3D56"/>
<path d="M518.829 91.6343C525.808 91.6343 531.466 86.226 531.466 79.5546C531.466 72.8832 525.808 67.475 518.829 67.475C511.849 67.475 506.192 72.8832 506.192 79.5546C506.192 86.226 511.849 91.6343 518.829 91.6343Z" fill="white"/>
<path d="M518.829 62.0599C514.09 62.0599 509.546 63.8592 506.195 67.062C502.845 70.2648 500.963 74.6086 500.963 79.138C500.963 88.57 518.829 119.542 518.829 119.542C518.829 119.542 536.695 88.57 536.695 79.138C536.695 74.6086 534.812 70.2647 531.462 67.062C528.111 63.8592 523.567 62.0599 518.829 62.0599ZM518.829 87.4688C517.191 87.4688 515.59 87.0047 514.229 86.135C512.867 85.2654 511.806 84.0294 511.179 82.5832C510.553 81.1371 510.389 79.5458 510.708 78.0106C511.028 76.4754 511.816 75.0652 512.974 73.9583C514.132 72.8515 515.607 72.0977 517.213 71.7924C518.819 71.487 520.484 71.6437 521.997 72.2427C523.51 72.8418 524.803 73.8561 525.713 75.1576C526.622 76.4591 527.108 77.9893 527.108 79.5546C527.108 81.6536 526.236 83.6666 524.683 85.1508C523.13 86.635 521.024 87.4688 518.829 87.4688V87.4688Z" fill="#3F3D56"/>
<path d="M155.932 449.635L165.99 448.543L166.373 410.941L151.529 412.552L155.932 449.635Z" fill="#FFB8B8"/>
<path d="M186.446 455.367L154.836 458.795L153.45 447.121L172.847 445.017C176.086 444.666 179.339 445.559 181.889 447.5C184.439 449.441 186.078 452.27 186.446 455.367Z" fill="#2F2E41"/>
<path d="M52.4958 449.034L62.6181 449.033L67.4332 411.712L52.4941 411.713L52.4958 449.034Z" fill="#FFB8B8"/>
<path d="M82.1396 458.017L50.3272 458.018L50.3266 446.269L69.8479 446.269C73.1077 446.268 76.2341 447.506 78.5393 449.709C80.8444 451.913 82.1395 454.901 82.1396 458.017Z" fill="#2F2E41"/>
<path d="M125.12 282.138L130.9 300.108L162.274 365.006L170.53 426.566L151.541 427.355L139.982 370.531L100.351 329.491L65.6742 436.826L49.9871 435.248C49.9871 435.248 63.1973 296.344 81.3613 282.138C81.3613 282.138 111.084 268.721 125.12 282.138Z" fill="#2F2E41"/>
<path d="M99.4831 204.599C110.683 204.599 119.762 195.921 119.762 185.215C119.762 174.509 110.683 165.831 99.4831 165.831C88.2836 165.831 79.2046 174.509 79.2046 185.215C79.2046 195.921 88.2836 204.599 99.4831 204.599Z" fill="#FFB8B8"/>
<path d="M127.184 285.689C127.184 285.689 129.661 205.188 94.9844 210.713C60.3076 216.237 74.7563 293.976 74.7563 293.976C74.7563 293.976 82.187 308.182 100.351 292.398C118.515 276.613 127.184 285.689 127.184 285.689Z" fill="#CCCCCC"/>
<path opacity="0.2" d="M79.2976 244.649L87.4574 274.548L99.889 286.432L82.6002 280.954L79.2976 244.649Z" fill="black"/>
<path d="M127.44 319.735C126.299 319.339 125.263 318.71 124.404 317.89C123.545 317.07 122.885 316.08 122.469 314.99C122.054 313.9 121.894 312.736 122 311.58C122.106 310.424 122.476 309.305 123.084 308.3L103.798 286.957L119.001 285.065L134.985 305.623C136.682 306.711 137.903 308.356 138.416 310.247C138.93 312.138 138.7 314.143 137.77 315.882C136.84 317.622 135.275 318.975 133.371 319.685C131.467 320.395 129.357 320.413 127.44 319.735Z" fill="#FFB8B8"/>
<path d="M103.959 227.109L106.131 267.932L131.725 299.501L120.992 307.393L86.3152 274.245C86.3152 274.245 73.9306 233.995 83.0127 222.156C86.4184 217.717 90.1725 216.496 93.5347 216.704C96.3011 216.924 98.8878 218.104 100.808 220.02C102.728 221.937 103.849 224.458 103.959 227.109Z" fill="#CCCCCC"/>
<path d="M97.0712 205.583C97.1681 205.5 97.2433 205.396 97.2911 205.281C97.3388 205.165 97.3577 205.04 97.3462 204.916C97.3347 204.793 97.2932 204.673 97.225 204.567C97.1567 204.461 97.0636 204.372 96.953 204.307C95.1522 203.241 93.6851 201.731 92.7057 199.936C91.7262 198.14 91.2707 196.126 91.387 194.104C91.5032 192.083 92.1869 190.128 93.3662 188.447C94.5456 186.765 96.177 185.418 98.0891 184.547C104.051 181.829 112.13 183.943 116.537 178.722C117.434 177.605 118.067 176.316 118.396 174.943C118.724 173.571 118.738 172.147 118.438 170.769C117.487 165.837 113.609 162.174 109.265 159.665C103.93 156.581 97.7972 154.988 91.5628 155.066C85.3283 155.143 79.2413 156.888 73.9912 160.103C68.7412 163.318 64.538 167.874 61.858 173.256C59.1781 178.637 58.1284 184.628 58.8279 190.55C59.3886 195.297 60.9207 200.619 57.9682 204.473C55.3696 207.865 50.4647 208.501 46.156 209.343C36.9145 211.151 27.9988 215.321 21.7274 222.056C15.4559 228.792 12.1103 238.242 14.0012 247.076C15.892 255.91 23.4779 263.673 32.8015 265.043C40.3904 266.157 48.2266 263.077 53.7995 258.028C59.3725 252.979 62.8951 246.162 65.117 239.136C67.7542 230.798 68.7945 221.812 73.5557 214.385C78.2149 207.116 88.2553 201.906 96.1244 205.691C96.2753 205.766 96.4464 205.796 96.6154 205.777C96.7843 205.758 96.9432 205.69 97.0712 205.583Z" fill="#2F2E41"/>
<path d="M254.297 459H0.825638C0.606665 459 0.39666 458.917 0.241823 458.769C0.086986 458.621 0 458.42 0 458.211C0 458.002 0.086986 457.801 0.241823 457.653C0.39666 457.505 0.606665 457.422 0.825638 457.422H254.297C254.516 457.422 254.726 457.505 254.88 457.653C255.035 457.801 255.122 458.002 255.122 458.211C255.122 458.42 255.035 458.621 254.88 458.769C254.726 458.917 254.516 459 254.297 459Z" fill="#3F3D56"/>
</g>
<defs>
<clipPath id="clip0">
<rect width="667" height="459" fill="white"/>
</clipPath>
</defs>
</svg>
